<?xml version="1.0" encoding="UTF-8" standalone="no"?>
<svg
   class="icon icon-tabler icon-tabler-clipboard-data"
   width="24"
   height="24"
   viewBox="0 0 24 24"
   stroke-width="2"
   stroke="currentColor"
   fill="none"
   stroke-linecap="round"
   stroke-linejoin="round"
   version="1.1"
   id="svg68"
   sodipodi:docname="clipboard-data.svg"
   inkscape:version="1.2.2 (b0a8486541, 2022-12-01)"
   xmlns:inkscape="http://www.inkscape.org/namespaces/inkscape"
   xmlns:sodipodi="http://sodipodi.sourceforge.net/DTD/sodipodi-0.dtd"
   xmlns="http://www.w3.org/2000/svg"
   xmlns:svg="http://www.w3.org/2000/svg">
   <defs
      id="defs72" />
   <sodipodi:namedview
      id="namedview70"
      pagecolor="#ffffff"
      bordercolor="#000000"
      borderopacity="0.25"
      inkscape:showpageshadow="2"
      inkscape:pageopacity="0.0"
      inkscape:pagecheckerboard="0"
      inkscape:deskcolor="#d1d1d1"
      showgrid="false"
      inkscape:zoom="18.254268"
      inkscape:cx="5.9438153"
      inkscape:cy="8.1350837"
      inkscape:window-width="1920"
      inkscape:window-height="1054"
      inkscape:window-x="0"
      inkscape:window-y="0"
      inkscape:window-maximized="1"
      inkscape:current-layer="svg68" />
   <rect
      style="fill:#ffffff;stroke:#ffffff"
      id="rect266"
      width="22"
      height="22"
      x="1"
      y="1"
      rx="2.5"
      ry="2.5" />
   <path
      stroke="none"
      d="M0 0h24v24H0z"
      fill="none"
      id="path54" />
   <path
      d="M9 5h-2a2 2 0 0 0 -2 2v12a2 2 0 0 0 2 2h10a2 2 0 0 0 2 -2v-12a2 2 0 0 0 -2 -2h-2"
      id="path56" />
   <path
      d="M9 3m0 2a2 2 0 0 1 2 -2h2a2 2 0 0 1 2 2v0a2 2 0 0 1 -2 2h-2a2 2 0 0 1 -2 -2z"
      id="path58" />
   <path
      d="M9 17v-4"
      id="path60" />
   <path
      d="M12 17v-1"
      id="path62" />
   <path
      d="M15 17v-2"
      id="path64" />
   <path
      d="M12 17v-1"
      id="path66" />
</svg>